<svg width="599" height="130" xmlns="http://www.w3.org/2000/svg" fill="none">
 <defs>
  <linearGradient id="paint0_linear_419_677" x1="-2.06955" y1="1.72357" x2="1.44415" y2="-0.01892">
   <stop stop-color="#FDEB34"/>
   <stop offset="0.13" stop-color="#F9D033"/>
   <stop offset="0.41" stop-color="#EF8C32"/>
   <stop offset="0.58" stop-color="#E96032"/>
   <stop offset="0.84" stop-color="#C71658"/>
  </linearGradient>
  <linearGradient id="paint1_linear_419_677" x1="-1.45871" y1="1.60865" x2="1.74082" y2="-0.32343">
   <stop stop-color="#FDEB34"/>
   <stop offset="0.13" stop-color="#F9D033"/>
   <stop offset="0.41" stop-color="#EF8C32"/>
   <stop offset="0.58" stop-color="#E96032"/>
   <stop offset="0.84" stop-color="#C71658"/>
  </linearGradient>
  <linearGradient id="paint2_linear_419_677" x1="-0.75209" y1="1.35782" x2="2.38554" y2="-0.47276">
   <stop stop-color="#FDEB34"/>
   <stop offset="0.13" stop-color="#F9D033"/>
   <stop offset="0.41" stop-color="#EF8C32"/>
   <stop offset="0.58" stop-color="#E96032"/>
   <stop offset="0.84" stop-color="#C71658"/>
  </linearGradient>
  <linearGradient id="paint3_linear_419_677" x1="-0.82736" y1="1" x2="2.56076" y2="-0.68294">
   <stop stop-color="#FDEB34"/>
   <stop offset="0.13" stop-color="#F9D033"/>
   <stop offset="0.41" stop-color="#EF8C32"/>
   <stop offset="0.58" stop-color="#E96032"/>
   <stop offset="0.84" stop-color="#C71658"/>
  </linearGradient>
  <linearGradient id="paint4_linear_419_677" x1="-1.03238" y1="1.57136" x2="2.02308" y2="-0.31511">
   <stop stop-color="#2A2B2D"/>
   <stop offset="0.13" stop-color="#F9D033"/>
   <stop offset="0.41" stop-color="#EF8C32"/>
   <stop offset="0.58" stop-color="#E96032"/>
   <stop offset="0.84" stop-color="#C71658"/>
  </linearGradient>
 </defs>
 <g>
  <title>Layer 1</title>
  <path fill="#000000" opacity="undefined" d="m12,-46l630,0l0,280l-630,0l0,-280z" id="svg_1" fill-opacity="0"/>
  <path d="m537.582,10.4214c12.109,3.4581 23.204,10.6493 31.19,21.3856c4.484,6.034 7.609,12.617 9.417,19.418c-4.412,5.353 -9.764,9.159 -15.696,11.792c-9.388,2.894 -19.703,3.617 -30.032,2.894c-1.36,-0.102 -2.719,-0.102 -3.963,-0.666c-0.897,-0.39 -1.375,-0.926 -1.519,-1.562c-0.189,-0.811 0.072,-1.867 0.636,-3.025c0.477,-1.012 1.114,-1.953 1.678,-2.908c6.409,-10.866 10.025,-21.429 10.416,-31.601c0.202,-5.3387 -0.492,-10.5766 -2.112,-15.6987l-0.015,-0.0289z" fill="url(#paint0_linear_419_677)" id="svg_2"/>
  <path d="m565.332,70.89c-10.054,2.778 -21.453,2.692 -34.025,0.102c-1.113,-0.232 -2.227,-0.521 -3.37,-0.666c-1.317,-0.159 -2.416,-0.072 -3.154,0.362c-0.564,0.318 -0.94,0.926 -1.056,1.895c-0.159,1.331 0.246,2.605 0.579,3.892c2.488,9.796 6.365,19.129 12.079,26.942c4.398,4.703 9.779,8.508 16.376,10.953c6.061,-3.776 11.53,-8.71 16.014,-14.729c7.986,-10.736 11.559,-23.252 11.197,-35.551c-4.484,3.096 -9.374,5.353 -14.64,6.815l0,-0.015z" fill="url(#paint1_linear_419_677)" id="svg_3"/>
  <path d="m529.615,108.511c-5.816,-8.465 -9.259,-19.071 -10.618,-31.543c-0.116,-1.114 -0.174,-2.229 -0.391,-3.328c-0.246,-1.274 -0.665,-2.257 -1.316,-2.807c-0.492,-0.434 -1.201,-0.593 -2.17,-0.391c-1.36,0.261 -2.46,1.027 -3.617,1.736c-8.781,5.34 -16.694,11.836 -22.553,19.563c-3.211,5.527 -5.251,11.691 -5.598,18.549c5.555,4.471 12.05,8.016 19.312,10.317c12.918,4.109 26.227,3.559 38.104,-0.593c-4.397,-3.213 -8.101,-7.047 -11.168,-11.489l0.015,-0.014z" fill="url(#paint2_linear_419_677)" id="svg_4"/>
  <path d="m481.905,86.994c6.452,-8.015 15.725,-14.483 27.457,-19.591c1.042,-0.448 2.112,-0.854 3.125,-1.389c1.157,-0.622 1.996,-1.317 2.329,-2.083c0.26,-0.594 0.202,-1.288 -0.289,-2.142c-0.68,-1.172 -1.765,-1.953 -2.807,-2.807c-7.898,-6.497 -16.665,-11.821 -25.981,-14.874c-6.394,-1.288 -13.049,-1.274 -19.863,0.535c-2.632,6.54 -4.079,13.645 -4.079,21.096c0,13.268 4.644,25.437 12.354,35.189c1.765,-5.078 4.369,-9.709 7.754,-13.905l0,-0.029z" fill="url(#paint3_linear_419_677)" id="svg_5"/>
  <path d="m488.137,36.077c9.808,3.501 18.98,10.114 27.587,19.417c0.767,0.825 1.49,1.708 2.33,2.475c0.969,0.882 1.909,1.446 2.763,1.519c0.651,0.058 1.33,-0.217 1.996,-0.926c0.94,-0.984 1.36,-2.243 1.881,-3.487c3.891,-9.347 6.379,-19.143 6.466,-28.736c-0.723,-6.3232 -2.792,-12.4726 -6.64,-18.2313c-7.19,-0.4341 -14.568,0.4341 -21.844,2.7347c-12.933,4.0947 -23.363,12.1686 -30.481,22.3406c5.498,0.072 10.807,1.056 15.957,2.894l-0.015,0z" fill="url(#paint4_linear_419_677)" id="svg_6"/>
  <path d="m34.1336,57.982l3.1826,0l17.8369,-24.294l15.9419,0l-21.9599,29.546l23.9418,31.615l-15.7683,0l-18.6905,-24.033l-4.4845,0l0,24.033l-14.1336,0l0,-61.161l14.1336,0l0,24.294zm110.0014,-11.894l-18.603,0l0,48.761l-14.119,0l0,-48.747l-18.691,0l0,-12.414l51.428,0l0,12.414l-0.015,-0.014zm17.664,49.629c-3.79,0 -7.19,-0.622 -10.213,-1.852c-3.009,-1.23 -5.57,-2.908 -7.668,-5.035c-2.097,-2.127 -3.689,-4.587 -4.788,-7.365c-1.085,-2.793 -1.635,-5.701 -1.635,-8.739c0,-3.27 0.55,-6.367 1.635,-9.261c1.085,-2.893 2.676,-5.44 4.745,-7.625c2.069,-2.185 4.6,-3.907 7.624,-5.165c3.009,-1.259 6.452,-1.896 10.3,-1.896c3.848,0 7.262,0.637 10.256,1.896c2.98,1.258 5.512,2.966 7.581,5.122c2.068,2.156 3.631,4.644 4.701,7.451c1.056,2.822 1.592,5.774 1.592,8.87c0,0.81 -0.029,1.592 -0.087,2.373c-0.058,0.767 -0.145,1.447 -0.261,2.026l-33.417,0c0.232,3.038 1.331,5.353 3.313,6.93c1.982,1.577 4.239,2.373 6.756,2.373c2.011,0 3.949,-0.492 5.815,-1.461c1.866,-0.97 3.11,-2.301 3.747,-3.965l11.718,3.27c-1.78,3.56 -4.543,6.468 -8.275,8.696c-3.732,2.243 -8.217,3.357 -13.439,3.357zm9.562,-27.737c-0.289,-2.865 -1.316,-5.137 -3.096,-6.801c-1.779,-1.664 -3.993,-2.503 -6.64,-2.503c-2.647,0 -4.918,0.854 -6.683,2.547c-1.751,1.693 -2.778,3.95 -3.053,6.757l19.472,0zm16.101,14.99c1.548,-0.058 2.835,-0.333 3.834,-0.825c0.998,-0.492 1.837,-1.403 2.502,-2.764c0.666,-1.345 1.201,-3.212 1.635,-5.599c0.434,-2.388 0.882,-5.527 1.331,-9.434l1.548,-14.73l33.764,0l0,45.231l-13.786,0l0,-33.424l-8.015,0l-0.694,5.079c-0.752,5.571 -1.62,10.186 -2.633,13.832c-0.998,3.647 -2.329,6.569 -3.964,8.74c-1.634,2.185 -3.674,3.733 -6.119,4.659c-2.445,0.926 -5.468,1.403 -9.085,1.461l-0.347,-12.241l0.029,0.015zm75.803,12.747c-3.79,0 -7.189,-0.622 -10.213,-1.852c-3.009,-1.23 -5.569,-2.908 -7.667,-5.035c-2.098,-2.127 -3.689,-4.587 -4.774,-7.365c-1.085,-2.793 -1.635,-5.701 -1.635,-8.739c0,-3.27 0.55,-6.367 1.635,-9.261c1.085,-2.893 2.662,-5.44 4.745,-7.625c2.069,-2.185 4.6,-3.907 7.624,-5.165c3.009,-1.259 6.452,-1.896 10.3,-1.896c3.848,0 7.262,0.637 10.256,1.896c2.981,1.258 5.512,2.966 7.581,5.122c2.069,2.156 3.631,4.644 4.701,7.451c1.056,2.822 1.592,5.774 1.592,8.87c0,0.81 -0.029,1.592 -0.087,2.373c-0.058,0.767 -0.145,1.447 -0.261,2.026l-33.417,0c0.232,3.038 1.331,5.353 3.313,6.93c1.982,1.577 4.239,2.373 6.756,2.373c2.011,0 3.949,-0.492 5.815,-1.461c1.866,-0.97 3.111,-2.301 3.747,-3.965l11.718,3.27c-1.78,3.56 -4.543,6.468 -8.275,8.696c-3.732,2.243 -8.217,3.357 -13.439,3.357l-0.015,0zm9.563,-27.737c-0.29,-2.865 -1.317,-5.137 -3.096,-6.801c-1.78,-1.664 -3.993,-2.503 -6.64,-2.503c-2.648,0 -4.919,0.854 -6.684,2.547c-1.75,1.693 -2.777,3.95 -3.052,6.757l19.472,0zm49.185,-18.347l14.727,0l-17.664,21.877l19.125,23.354l-15.855,0l-13.092,-16.119l-1.809,0l0,16.119l-13.612,0l0,-45.231l13.612,0l0,16.972l1.548,0l13.006,-16.972l0.014,0zm39.797,46.099c-3.848,0 -7.277,-0.637 -10.3,-1.896c-3.009,-1.259 -5.555,-2.966 -7.624,-5.122c-2.069,-2.156 -3.631,-4.659 -4.701,-7.495c-1.056,-2.836 -1.592,-5.817 -1.592,-8.913c0,-3.096 0.536,-6.077 1.592,-8.913c1.056,-2.85 2.632,-5.339 4.701,-7.495c2.069,-2.156 4.615,-3.878 7.624,-5.166c3.009,-1.287 6.452,-1.938 10.3,-1.938c3.848,0 7.262,0.651 10.256,1.938c2.981,1.288 5.512,3.01 7.581,5.166c2.069,2.156 3.645,4.659 4.745,7.495c1.085,2.836 1.634,5.817 1.634,8.913c0,3.096 -0.535,6.077 -1.591,8.913c-1.056,2.85 -2.633,5.339 -4.701,7.495c-2.069,2.156 -4.601,3.863 -7.624,5.122c-3.009,1.259 -6.452,1.896 -10.3,1.896zm-10.083,-23.44c0,3.559 0.955,6.424 2.85,8.565c1.895,2.156 4.311,3.227 7.233,3.227c1.432,0 2.763,-0.289 3.964,-0.868c1.215,-0.579 2.256,-1.375 3.139,-2.417c0.897,-1.027 1.591,-2.286 2.112,-3.747c0.521,-1.461 0.781,-3.053 0.781,-4.775c0,-3.559 -0.955,-6.424 -2.85,-8.58c-1.895,-2.156 -4.282,-3.227 -7.146,-3.227c-1.432,0 -2.778,0.29 -4.007,0.868c-1.23,0.579 -2.3,1.375 -3.183,2.417c-0.897,1.027 -1.591,2.286 -2.112,3.747c-0.521,1.462 -0.781,3.053 -0.781,4.79zm67.876,-1.216l12.311,-21.458l14.22,0l0,45.231l-13.092,0l0,-24.554l-10.416,18.014l-6.119,0l-10.416,-18.014l0,24.554l-13.092,0l0,-45.231l14.293,0l12.311,21.458z" fill="#ffffff" id="svg_7"/>
 </g>
</svg>